<svg width="25" height="24" viewBox="0 0 25 24" fill="none" xmlns="http://www.w3.org/2000/svg">
<path fill-rule="evenodd" clip-rule="evenodd" d="M16.5 2C17.0128 2 17.4355 2.38604 17.4933 2.88338L17.5 3L17.4997 4H20.5C21.0128 4 21.4355 4.38604 21.4933 4.88338L21.5 5V14.25C21.5 14.2954 21.497 14.3401 21.4911 14.3838C21.3077 18.2648 18.3583 21.4226 14.5701 21.929C14.4906 21.961 14.4054 21.983 14.3166 21.9933L14.2 22H4.51566C4.00282 22 3.58015 21.614 3.52238 21.1166L3.51566 21V5C3.51566 4.48716 3.9017 4.06449 4.39903 4.00673L4.51566 4H7.49966L7.5 3C7.5 2.44772 7.94771 2 8.5 2C9.01283 2 9.4355 2.38604 9.49327 2.88338L9.5 3L9.49966 4H15.4997L15.5 3C15.5 2.44772 15.9477 2 16.5 2ZM7.49966 6H5.51566V20H12.4997L12.5 14C12.5 13.4872 12.886 13.0645 13.3834 13.0067L13.5 13H19.4997L19.5 6H17.4997L17.5 8C17.5 8.55228 17.0523 9 16.5 9C15.9872 9 15.5645 8.61396 15.5067 8.11662L15.5 8L15.4997 6H9.49966L9.5 8C9.5 8.55228 9.05228 9 8.5 9C7.98716 9 7.56449 8.61396 7.50672 8.11662L7.5 8L7.49966 6ZM19.415 15H14.5V19.915L14.6023 19.8989C17.0321 19.4477 18.9477 17.532 19.3989 15.1023L19.415 15Z" fill="#003D4C"/>
</svg>
