<svg viewBox="0 0 24 24" xmlns="http://www.w3.org/2000/svg">
    <path fill-rule="evenodd" clip-rule="evenodd" d="M16.429 2H7.65244C7.37472 2 7.10952 2.11549 6.92034 2.3188L2.26791 7.3188C2.09572 7.50384 2 7.74723 2 8V16C2 16.2528 2.09572 16.4962 2.26791 16.6812L6.92034 21.6812C7.10952 21.8845 7.37472 22 7.65244 22H16.429C16.7098 22 16.9776 21.882 17.167 21.6747L21.7381 16.6747C21.9066 16.4904 22 16.2497 22 16V8C22 7.75027 21.9066 7.50958 21.7381 7.32526L17.167 2.32526C16.9776 2.11804 16.7098 2 16.429 2ZM15.988 4L20 8.389V15.61L15.987 20H8.088L4 15.606V8.393L8.087 4H15.988ZM11 8C11 7.44772 11.4477 7 12 7C12.5523 7 13 7.44772 13 8V13C13 13.5523 12.5523 14 12 14C11.4477 14 11 13.5523 11 13V8ZM12 16C12.5523 16 13 16.4477 13 17C13 17.5523 12.5523 18 12 18C11.4477 18 11 17.5523 11 17C11 16.4477 11.4477 16 12 16Z" fill="currentColor"/>
</svg>
