<svg width="24" height="24" viewBox="0 0 24 24" fill="none" xmlns="http://www.w3.org/2000/svg">
<path fill-rule="evenodd" clip-rule="evenodd" d="M3 19C2.44772 19 2 18.5523 2 18V4C2 3.44772 2.44772 3 3 3H9C10.1952 3 11.268 3.52421 12.001 4.35526C12.732 3.52421 13.8048 3 15 3H21C21.5523 3 22 3.44772 22 4V18C22 18.5523 21.5523 19 21 19H17C14.3256 19.1014 12.9884 19.7193 12.9884 20.8539C13 22.1519 12 22 12 22C11.9149 22.0105 11 22.0955 11 20.8539C11 19.7193 10 19.1014 8 19H3ZM8.5 5H4V17C8.54386 16.9545 10.8756 17.2158 10.9952 17.7836L11 17.8303V7.5C11 6.11929 9.88071 5 8.5 5ZM20 5H15.5C14.1193 5 13 6.11929 13 7.5V17.8303L13.0048 17.7836C13.1244 17.2158 15.4561 16.9545 20 17V5Z" fill="#003D4C"/>
</svg>
