<svg width="364" height="61" viewBox="0 0 364 61" fill="none" xmlns="http://www.w3.org/2000/svg">
<rect width="20.2222" height="20.1796" transform="matrix(-1 0 0 1 80.8889 20.1797)" fill="#001F26"/>
<rect width="20.2222" height="20.1796" transform="matrix(-1 0 0 1 121.333 20.1797)" fill="#001F26"/>
<rect width="20.2222" height="20.1796" transform="matrix(-1 0 0 1 60.6666 20.1797)" fill="#001F26"/>
<rect width="20.2222" height="20.1796" transform="matrix(-1 0 0 1 20.2222 20.1797)" fill="#001F26"/>
<rect width="20.2222" height="20.1796" transform="matrix(-1 0 0 1 40.4445 20.1797)" fill="#001F26"/>
<rect width="20.2222" height="20.1796" transform="matrix(-1 0 0 1 101.111 20.1797)" fill="#001F26"/>
<rect width="20.2222" height="20.1796" transform="matrix(-1 0 0 1 60.6666 0)" fill="#001F26"/>
<rect width="20.2222" height="20.1796" transform="matrix(-1 0 0 1 80.8889 0)" fill="#001F26"/>
<rect width="20.2222" height="20.1796" transform="matrix(-1 0 0 1 40.4445 0)" fill="#001F26"/>
<rect width="20.2222" height="20.1796" transform="matrix(-1 0 0 1 20.2222 0)" fill="#001F26"/>
<rect width="20.2222" height="20.1796" transform="matrix(-1 0 0 1 60.6666 40.3593)" fill="#001F26"/>
<rect width="20.2222" height="20.1796" transform="matrix(-1 0 0 1 121.333 0)" fill="#001F26"/>
<rect width="20.2222" height="20.1796" transform="matrix(-1 0 0 1 40.4445 40.3593)" fill="#001F26"/>
<rect width="20.2222" height="20.1796" transform="matrix(-1 0 0 1 101.111 0)" fill="#001F26"/>
<rect width="20.2222" height="20.1796" transform="matrix(-1 0 0 1 20.2222 40.3593)" fill="#001F26"/>
<rect width="20.2222" height="20.1796" transform="matrix(-1 0 0 1 80.8889 40.3593)" fill="#001F26"/>
<rect width="20.2222" height="20.1796" transform="matrix(-1 0 0 1 121.333 40.3593)" fill="#001F26"/>
<rect width="20.2222" height="20.1796" transform="matrix(-1 0 0 1 101.111 40.3593)" fill="#001F26"/>
<rect width="20.2222" height="20.1796" transform="matrix(-1 0 0 1 161.778 20.1797)" fill="#001F26"/>
<rect width="20.2222" height="20.1796" transform="matrix(-1 0 0 1 202.222 20.1797)" fill="#001F26"/>
<rect width="20.2222" height="20.1796" transform="matrix(-1 0 0 1 141.556 20.1797)" fill="#001F26"/>
<rect width="20.2222" height="20.1796" transform="matrix(-1 0 0 1 182 20.1797)" fill="#001F26"/>
<rect width="20.2222" height="20.1796" transform="matrix(-1 0 0 1 161.778 0)" fill="#001F26"/>
<rect width="20.2222" height="20.1796" transform="matrix(-1 0 0 1 202.222 0)" fill="#001F26"/>
<rect width="20.2222" height="20.1796" transform="matrix(-1 0 0 1 141.556 0)" fill="#001F26"/>
<rect width="20.2222" height="20.1796" transform="matrix(-1 0 0 1 182 0)" fill="#001F26"/>
<rect width="20.2222" height="20.1796" transform="matrix(-1 0 0 1 161.778 40.3593)" fill="#001F26"/>
<rect width="20.2222" height="20.1796" transform="matrix(-1 0 0 1 202.222 40.3593)" fill="#001F26"/>
<rect width="20.2222" height="20.1796" transform="matrix(-1 0 0 1 141.556 40.3593)" fill="#001F26"/>
<rect width="20.2222" height="20.1796" transform="matrix(-1 0 0 1 182 40.3593)" fill="#001F26"/>
<rect width="20.2222" height="20.1796" transform="matrix(-1 0 0 1 242.667 20.1797)" fill="#001F26"/>
<rect opacity="0.8" width="20.2222" height="20.1796" transform="matrix(-1 0 0 1 283.111 20.1797)" fill="#001F26"/>
<rect opacity="0.4" width="20.2222" height="20.1796" transform="matrix(-1 0 0 1 323.556 20.1797)" fill="#001F26"/>
<rect width="20.2222" height="20.1796" transform="matrix(-1 0 0 1 222.444 20.1797)" fill="#001F26"/>
<rect width="20.2222" height="20.1796" transform="matrix(-1 0 0 1 262.889 20.1797)" fill="#001F26"/>
<rect opacity="0.6" width="20.2222" height="20.1796" transform="matrix(-1 0 0 1 303.333 20.1797)" fill="#001F26"/>
<rect opacity="0.2" width="20.2222" height="20.1796" transform="matrix(-1 0 0 1 343.778 20.1797)" fill="#001F26"/>
<rect width="20.2222" height="20.1796" transform="matrix(-1 0 0 1 242.667 0)" fill="#001F26"/>
<rect width="20.2222" height="20.1796" transform="matrix(-1 0 0 1 283.111 0)" fill="#001F26"/>
<rect opacity="0.6" width="20.2222" height="20.1796" transform="matrix(-1 0 0 1 323.556 0)" fill="#001F26"/>
<rect opacity="0.2" width="20.2222" height="20.1796" transform="matrix(-1 0 0 1 364 0)" fill="#001F26"/>
<rect width="20.2222" height="20.1796" transform="matrix(-1 0 0 1 222.444 0)" fill="#001F26"/>
<rect width="20.2222" height="20.1796" transform="matrix(-1 0 0 1 262.889 0)" fill="#001F26"/>
<rect opacity="0.8" width="20.2222" height="20.1796" transform="matrix(-1 0 0 1 303.333 0)" fill="#001F26"/>
<rect opacity="0.4" width="20.2222" height="20.1796" transform="matrix(-1 0 0 1 343.778 0)" fill="#001F26"/>
<rect width="20.2222" height="20.1796" transform="matrix(-1 0 0 1 242.667 40.3593)" fill="#001F26"/>
<rect opacity="0.6" width="20.2222" height="20.1796" transform="matrix(-1 0 0 1 283.111 40.3593)" fill="#001F26"/>
<rect opacity="0.2" width="20.2222" height="20.1796" transform="matrix(-1 0 0 1 323.556 40.3593)" fill="#001F26"/>
<rect width="20.2222" height="20.1796" transform="matrix(-1 0 0 1 222.444 40.3593)" fill="#001F26"/>
<rect opacity="0.8" width="20.2222" height="20.1796" transform="matrix(-1 0 0 1 262.889 40.3593)" fill="#001F26"/>
<rect opacity="0.4" width="20.2222" height="20.1796" transform="matrix(-1 0 0 1 303.333 40.3593)" fill="#001F26"/>
<path fill-rule="evenodd" clip-rule="evenodd" d="M53.926 11.8916H41.6406C41.1795 11.8916 40.8057 12.2645 40.8057 12.7251V24.0635C43.5758 17.1444 49.1088 13.6497 53.926 11.8916Z" fill="white"/>
<path fill-rule="evenodd" clip-rule="evenodd" d="M62.2248 34.0688C62.6859 34.0688 63.0597 33.6958 63.0597 33.2353V12.7252C63.0597 12.2629 62.6863 11.8917 62.2309 11.8917C62.2114 11.8917 62.1927 11.8921 62.1732 11.8935C58.093 12.171 41.2973 14.4549 40.8062 33.2202C40.7936 33.6854 41.1764 34.0688 41.6429 34.0688H62.2248Z" fill="#00D1B6"/>
<path fill-rule="evenodd" clip-rule="evenodd" d="M96.0891 19.9197C96.0891 19.5943 96.322 19.3385 96.6481 19.3385C96.9745 19.3385 97.2309 19.5709 97.2309 19.9197V21.6404C98.0224 20.2451 99.3513 19.1526 101.519 19.1526C104.524 19.1526 106.272 21.1986 106.272 24.0357V30.8023C106.272 31.1515 106.039 31.3839 105.713 31.3839C105.387 31.3839 105.131 31.1515 105.131 30.8023V24.2454C105.131 21.8033 103.755 20.1983 101.355 20.1983C99.0249 20.1983 97.2309 21.9662 97.2309 24.4313V30.8023C97.2309 31.1515 96.998 31.3839 96.6715 31.3839C96.3451 31.3839 96.0891 31.1515 96.0891 30.8023V19.9197Z" fill="white"/>
<path fill-rule="evenodd" clip-rule="evenodd" d="M94.2058 19.0847C93.9032 19.0847 93.7399 19.271 93.6468 19.5038L88.8696 31.1309C88.1001 32.898 87.3082 33.7589 86.0031 33.7589C85.2809 33.7589 84.8613 33.666 84.4883 33.5258C84.4677 33.519 84.4477 33.5121 84.4281 33.5054C84.3143 33.4666 84.2152 33.4328 84.116 33.4328C83.8123 33.4328 83.5797 33.666 83.5797 33.9679C83.5797 34.2234 83.7191 34.3859 83.9054 34.4558C84.5352 34.6886 85.1412 34.8281 85.9331 34.8281C87.6346 34.8281 88.8462 33.9445 89.8952 31.4566L94.7182 19.9687C94.7651 19.8526 94.7886 19.7824 94.7886 19.666C94.7886 19.3413 94.5322 19.0847 94.2058 19.0847ZM87.1628 29.6439C87.2563 29.8692 87.4744 30.0054 87.7048 30.0054C87.7796 30.0054 87.8554 29.991 87.9287 29.9607C88.2277 29.8371 88.3696 29.4951 88.2465 29.1967L84.5498 20.2471C84.4259 19.9487 84.0825 19.8067 83.7839 19.93C83.4845 20.0536 83.3426 20.3955 83.4665 20.6939L87.1628 29.6439Z" fill="white"/>
<path fill-rule="evenodd" clip-rule="evenodd" d="M108.899 24.7968C109.109 22.1641 110.931 20.184 113.288 20.184C116.02 20.184 117.397 22.3973 117.561 24.7968H108.899ZM118.168 29.6425C118.308 29.5027 118.354 29.3628 118.354 29.2468C118.354 28.9437 118.098 28.7106 117.794 28.7106C117.631 28.7106 117.514 28.7805 117.421 28.8735C116.463 29.8053 115.273 30.5044 113.568 30.5044C111.234 30.5044 109.109 28.7805 108.899 25.822H118.237C118.518 25.822 118.798 25.5658 118.798 25.2858C118.798 21.8848 116.674 19.1361 113.335 19.1361C110.113 19.1361 107.685 21.8848 107.685 25.3327V25.3795C107.685 29.0836 110.394 31.5761 113.522 31.5761C115.67 31.5761 117 30.8075 118.168 29.6425ZM120.313 30.8075C120.313 31.1567 120.57 31.3898 120.896 31.3898C121.223 31.3898 121.457 31.1336 121.457 30.8075V26.4274C121.457 22.607 123.721 20.7202 126.243 20.487C126.616 20.464 126.85 20.184 126.85 19.8582C126.85 19.5087 126.593 19.229 126.243 19.229C124.562 19.229 122.484 20.487 121.457 22.7929V19.9047C121.457 19.5552 121.2 19.3224 120.873 19.3224C120.547 19.3224 120.313 19.5786 120.313 19.9047V30.8075ZM132.303 35.0704C134.054 35.0704 135.595 34.5115 136.622 33.4863C137.579 32.5314 138.14 31.1801 138.14 29.4565V19.9047C138.14 19.5786 137.882 19.3224 137.556 19.3224C137.229 19.3224 136.996 19.5786 136.996 19.9047V21.7915C136.015 20.3937 134.404 19.1361 132.023 19.1361C129.151 19.1361 126.303 21.349 126.303 24.7738V24.8199C126.303 28.2216 129.151 30.4115 132.023 30.4115C134.381 30.4115 135.968 29.1297 136.996 27.6623V29.3863C136.996 32.4381 135.058 33.9991 132.326 33.9991C130.669 33.9991 129.105 33.4863 127.751 32.4846C127.658 32.4381 127.564 32.3912 127.424 32.3912C127.12 32.3912 126.84 32.6712 126.84 32.9271C126.84 33.1371 126.934 33.3235 127.097 33.4398C128.638 34.5115 130.412 35.0704 132.303 35.0704ZM132.14 29.3163C129.688 29.3163 127.541 27.4526 127.541 24.7738V24.7269C127.541 21.9547 129.642 20.2308 132.14 20.2308C134.614 20.2308 137.066 22.0012 137.066 24.75V24.7968C137.066 27.4995 134.614 29.3163 132.14 29.3163ZM155.597 30.6907C155.597 31.0172 155.877 31.2965 156.204 31.2965H162.694C166.219 31.2965 168.553 29.5726 168.553 26.8465V26.8007C168.553 24.5406 166.826 23.4228 164.865 22.91C166.196 22.3738 167.643 21.256 167.643 19.0427V18.9959C167.643 17.9711 167.269 17.1091 166.593 16.4338C165.682 15.525 164.188 14.9892 162.344 14.9892H156.204C155.877 14.9892 155.597 15.2688 155.597 15.5945V30.6907ZM156.811 22.5136V16.1073H162.32C164.935 16.1073 166.406 17.3188 166.406 19.113V19.1588C166.406 21.3256 164.654 22.5136 162.203 22.5136H156.811ZM156.811 30.1787V23.6322H162.344C165.565 23.6322 167.316 24.7968 167.316 26.8007V26.8465C167.316 28.8969 165.542 30.1787 162.74 30.1787H156.811ZM174.095 31.5761C176.36 31.5761 177.831 30.4576 178.648 29.3163V30.8075C178.648 31.1567 178.881 31.3898 179.208 31.3898C179.535 31.3898 179.768 31.1567 179.768 30.8075V23.8884C179.768 22.4207 179.348 21.3256 178.554 20.5339C177.691 19.6716 176.406 19.229 174.796 19.229C173.278 19.229 172.088 19.5786 170.874 20.1141C170.757 20.1609 170.547 20.3469 170.547 20.6268C170.547 20.9061 170.803 21.1627 171.084 21.1627C171.154 21.1627 171.247 21.1393 171.341 21.0928C172.321 20.6268 173.418 20.3007 174.726 20.3007C177.177 20.3007 178.648 21.5353 178.648 23.9349V24.4473C177.504 24.1446 176.36 23.9349 174.702 23.9349C171.621 23.9349 169.496 25.3327 169.496 27.8025V27.8486C169.496 30.3181 171.878 31.5761 174.095 31.5761ZM174.165 30.5044C172.345 30.5044 170.71 29.5027 170.71 27.7787V27.7322C170.71 26.0786 172.111 24.9597 174.632 24.9597C176.336 24.9597 177.667 25.2397 178.671 25.4955V26.8465C178.671 29.0133 176.593 30.5044 174.165 30.5044ZM181.967 30.8075C181.967 31.1567 182.224 31.3898 182.551 31.3898C182.878 31.3898 183.111 31.1567 183.111 30.8075V24.4242C183.111 21.9547 184.909 20.184 187.243 20.184C189.648 20.184 191.025 21.7915 191.025 24.2376V30.8075C191.025 31.1567 191.282 31.3898 191.609 31.3898C191.936 31.3898 192.169 31.1567 192.169 30.8075V24.0278C192.169 21.1858 190.419 19.1361 187.407 19.1361C185.236 19.1361 183.905 20.2308 183.111 21.6286V19.9047C183.111 19.5552 182.854 19.3224 182.527 19.3224C182.201 19.3224 181.967 19.5786 181.967 19.9047V30.8075ZM194.368 30.8075C194.368 31.1567 194.625 31.3898 194.952 31.3898C195.279 31.3898 195.513 31.1567 195.513 30.8075V28.4079L198.407 25.4955L202.983 31.1336C203.146 31.3199 203.263 31.3898 203.473 31.3898C203.8 31.3898 204.033 31.1801 204.033 30.8543C204.033 30.6907 203.987 30.5743 203.87 30.4349L199.201 24.6804L203.566 20.2542C203.706 20.1141 203.753 20.0211 203.753 19.8582C203.753 19.5552 203.52 19.3224 203.216 19.3224C203.053 19.3224 202.936 19.3689 202.819 19.4853L195.513 27.0335V14.7794C195.513 14.4533 195.255 14.1967 194.929 14.1967C194.601 14.1967 194.368 14.4533 194.368 14.7794V30.8075Z" fill="white"/>
<path fill-rule="evenodd" clip-rule="evenodd" d="M76.5799 31.5699C71.9212 31.5699 68.1313 27.788 68.1313 23.1395C68.1313 18.4906 71.9212 14.7091 76.5799 14.7091C79.238 14.7091 81.6882 15.9202 83.302 18.0319C83.4981 18.2892 83.4486 18.656 83.1908 18.8521C82.934 19.0477 82.566 18.998 82.3696 18.7411C80.9797 16.9224 78.869 15.8788 76.5799 15.8788C72.568 15.8788 69.3035 19.136 69.3035 23.1395C69.3035 27.1434 72.568 30.4006 76.5799 30.4006C78.8654 30.4006 80.9735 29.3599 82.3638 27.5455C82.5603 27.2893 82.9279 27.2399 83.1853 27.4363C83.4425 27.6324 83.4916 27.9996 83.2948 28.2561C81.6813 30.362 79.2337 31.5699 76.5799 31.5699Z" fill="white"/>
<path fill-rule="evenodd" clip-rule="evenodd" d="M150.086 19.0847C149.783 19.0847 149.62 19.271 149.527 19.5038L144.749 31.1309C143.98 32.898 143.188 33.7589 141.883 33.7589C141.161 33.7589 140.741 33.666 140.368 33.5258C140.347 33.5188 140.327 33.5118 140.307 33.505C140.194 33.4664 140.095 33.4328 139.996 33.4328C139.692 33.4328 139.46 33.666 139.46 33.9679C139.46 34.2234 139.599 34.3859 139.785 34.4558C140.415 34.6886 141.021 34.8281 141.813 34.8281C143.514 34.8281 144.726 33.9445 145.775 31.4566L150.598 19.9687C150.645 19.8526 150.668 19.7824 150.668 19.666C150.668 19.3413 150.412 19.0847 150.086 19.0847ZM143.043 29.6439C143.136 29.8692 143.354 30.0054 143.585 30.0054C143.659 30.0054 143.735 29.991 143.809 29.9607C144.108 29.8371 144.249 29.4951 144.126 29.1967L140.43 20.2471C140.306 19.9487 139.962 19.8067 139.664 19.93C139.364 20.0536 139.222 20.3955 139.346 20.6939L143.043 29.6439Z" fill="white"/>
<path fill-rule="evenodd" clip-rule="evenodd" d="M107.308 46.5026C107.308 46.7245 107.136 46.8961 106.924 46.8961C106.701 46.8961 106.529 46.7245 106.529 46.5026V43.7985C106.529 42.8299 106.003 42.2245 105.083 42.2245C104.183 42.2245 103.516 42.8803 103.516 43.859V46.5026C103.516 46.7245 103.354 46.8961 103.132 46.8961C102.909 46.8961 102.738 46.7245 102.738 46.5026V39.8231C102.738 39.6112 102.909 39.4296 103.122 39.4296C103.344 39.4296 103.516 39.6112 103.516 39.8231V42.5373C103.86 41.9722 104.406 41.5182 105.306 41.5182C106.57 41.5182 107.308 42.3657 107.308 43.6068V46.5026ZM99.5554 46.4925C99.5554 46.7145 99.3734 46.8961 99.151 46.8961C98.9286 46.8961 98.7466 46.7145 98.7466 46.4925V40.5193H96.694C96.4918 40.5193 96.3199 40.3579 96.3199 40.1561C96.3199 39.9543 96.4918 39.7827 96.694 39.7827H101.608C101.81 39.7827 101.982 39.9543 101.982 40.1561C101.982 40.3579 101.81 40.5193 101.608 40.5193H99.5554V46.4925ZM110.854 46.9667C111.744 46.9667 112.33 46.6539 112.826 46.1797C112.906 46.1091 112.947 46.0183 112.947 45.9274C112.947 45.7458 112.795 45.5945 112.603 45.5945C112.512 45.5945 112.441 45.6348 112.381 45.6853C111.996 46.0384 111.521 46.2907 110.874 46.2907C109.944 46.2907 109.145 45.655 109.034 44.525H112.815C113.008 44.525 113.179 44.3736 113.179 44.1617C113.179 42.7794 112.3 41.5182 110.753 41.5182C109.307 41.5182 108.245 42.729 108.245 44.2324V44.2525C108.245 45.8669 109.418 46.9667 110.854 46.9667ZM109.034 43.9498H112.401C112.32 43.0014 111.774 42.174 110.733 42.174C109.823 42.174 109.135 42.9308 109.034 43.9498ZM120.979 46.8961C121.192 46.8961 121.364 46.7245 121.364 46.5026V43.6068C121.364 42.3657 120.626 41.5182 119.362 41.5182C118.462 41.5182 117.916 41.9722 117.572 42.5373V39.8231C117.572 39.6112 117.4 39.4296 117.178 39.4296C116.965 39.4296 116.793 39.6112 116.793 39.8231V46.5026C116.793 46.7245 116.965 46.8961 117.188 46.8961C117.41 46.8961 117.572 46.7245 117.572 46.5026V43.859C117.572 42.8803 118.239 42.2245 119.139 42.2245C120.059 42.2245 120.585 42.8299 120.585 43.7985V46.5026C120.585 46.7245 120.757 46.8961 120.979 46.8961ZM126.335 45.9375C125.982 46.5026 125.446 46.9566 124.546 46.9566C123.282 46.9566 122.544 46.1091 122.544 44.868V41.9722C122.544 41.7503 122.706 41.5787 122.928 41.5787C123.14 41.5787 123.322 41.7503 123.322 41.9722V44.6763C123.322 45.6449 123.848 46.2503 124.768 46.2503C125.658 46.2503 126.335 45.5945 126.335 44.6158V41.9722C126.335 41.7503 126.497 41.5787 126.72 41.5787C126.932 41.5787 127.104 41.7503 127.104 41.9722V46.5026C127.104 46.7145 126.942 46.8961 126.72 46.8961C126.507 46.8961 126.335 46.7245 126.335 46.5026V45.9375ZM135.999 46.8961C136.211 46.8961 136.383 46.7245 136.383 46.5026V43.6169C136.383 42.3254 135.645 41.5182 134.442 41.5182C133.532 41.5182 132.976 41.9823 132.601 42.5574C132.318 41.9722 131.772 41.5182 130.923 41.5182C130.043 41.5182 129.578 41.9924 129.234 42.507V41.9722C129.234 41.7503 129.063 41.5787 128.84 41.5787C128.628 41.5787 128.456 41.7603 128.456 41.9722V46.5026C128.456 46.7245 128.628 46.8961 128.85 46.8961C129.073 46.8961 129.234 46.7245 129.234 46.5026V43.8691C129.234 42.9106 129.861 42.2245 130.69 42.2245C131.52 42.2245 132.035 42.7996 132.035 43.7783V46.5026C132.035 46.7245 132.207 46.8961 132.419 46.8961C132.642 46.8961 132.814 46.7245 132.814 46.5026V43.8389C132.814 42.8097 133.461 42.2245 134.25 42.2245C135.099 42.2245 135.604 42.7895 135.604 43.7985V46.5026C135.604 46.7245 135.776 46.8961 135.999 46.8961ZM141.122 46.0586C140.758 46.5328 140.152 46.9566 139.231 46.9566C138.261 46.9566 137.28 46.4017 137.28 45.3321V45.312C137.28 44.2122 138.19 43.627 139.515 43.627C140.182 43.627 140.657 43.7178 141.122 43.8489V43.6673C141.122 42.729 140.546 42.2447 139.565 42.2447C139.039 42.2447 138.594 42.3657 138.21 42.5373C138.16 42.5574 138.109 42.5675 138.069 42.5675C137.887 42.5675 137.725 42.4162 137.725 42.2346C137.725 42.0731 137.836 41.9521 137.937 41.9117C138.453 41.6897 138.979 41.5585 139.646 41.5585C140.384 41.5585 140.95 41.7503 141.335 42.1337C141.688 42.4868 141.87 42.9913 141.87 43.6572V46.5127C141.87 46.7346 141.709 46.8961 141.496 46.8961C141.274 46.8961 141.122 46.7346 141.122 46.5328V46.0586ZM139.383 46.3411C138.675 46.3411 138.069 45.9577 138.069 45.3019V45.2817C138.069 44.6259 138.615 44.2021 139.595 44.2021C140.232 44.2021 140.748 44.3131 141.132 44.4241V44.9286C141.132 45.7559 140.344 46.3411 139.383 46.3411ZM147.702 46.5026C147.702 46.7245 147.53 46.8961 147.317 46.8961C147.095 46.8961 146.923 46.7245 146.923 46.5026V43.7985C146.923 42.8299 146.397 42.2245 145.477 42.2245C144.577 42.2245 143.91 42.8803 143.91 43.859V46.5026C143.91 46.7245 143.748 46.8961 143.526 46.8961C143.303 46.8961 143.131 46.7245 143.131 46.5026V41.9722C143.131 41.7603 143.303 41.5787 143.516 41.5787C143.738 41.5787 143.91 41.7503 143.91 41.9722V42.5373C144.254 41.9722 144.8 41.5182 145.7 41.5182C146.964 41.5182 147.702 42.3657 147.702 43.6068V46.5026ZM153.793 46.9566C154.753 46.9566 155.37 46.4218 155.795 45.7963V46.5026C155.795 46.7245 155.967 46.8961 156.189 46.8961C156.402 46.8961 156.573 46.7245 156.573 46.5026V39.8231C156.573 39.6011 156.402 39.4296 156.179 39.4296C155.957 39.4296 155.795 39.6011 155.795 39.8231V42.6281C155.39 42.0429 154.764 41.5182 153.793 41.5182C152.539 41.5182 151.295 42.5272 151.295 44.2324V44.2525C151.295 45.9678 152.539 46.9566 153.793 46.9566ZM152.094 44.2424C152.094 45.4734 152.954 46.2604 153.934 46.2604C154.905 46.2604 155.825 45.4431 155.825 44.2424V44.2223C155.825 43.0216 154.905 42.2144 153.934 42.2144C152.923 42.2144 152.094 42.961 152.094 44.2223V44.2424ZM158.37 40.5395C158.633 40.5395 158.835 40.368 158.835 40.1258V39.9946C158.835 39.7424 158.633 39.5809 158.37 39.5809C158.118 39.5809 157.915 39.7424 157.915 39.9946V40.1258C157.915 40.368 158.118 40.5395 158.37 40.5395ZM158.765 46.5026C158.765 46.7245 158.603 46.8961 158.38 46.8961C158.158 46.8961 157.986 46.7245 157.986 46.5026V41.9722C157.986 41.7603 158.158 41.5787 158.37 41.5787C158.593 41.5787 158.765 41.7503 158.765 41.9722V46.5026ZM162.493 48.4802C163.322 48.4802 164.02 48.2481 164.485 47.784C164.909 47.3602 165.152 46.7447 165.152 45.9375V41.9722C165.152 41.7603 164.98 41.5787 164.758 41.5787C164.535 41.5787 164.373 41.7603 164.373 41.9722V42.5675C163.949 42.0025 163.312 41.5182 162.331 41.5182C161.087 41.5182 159.874 42.4565 159.874 43.9801V44.0003C159.874 45.5037 161.077 46.442 162.331 46.442C163.292 46.442 163.929 45.9476 164.384 45.3422V45.9577C164.384 47.1786 163.635 47.8142 162.483 47.8142C161.805 47.8142 161.178 47.6124 160.632 47.2492C160.582 47.2189 160.531 47.1988 160.46 47.1988C160.278 47.1988 160.107 47.3703 160.107 47.5418C160.107 47.6831 160.187 47.8042 160.309 47.8647C160.966 48.2683 161.694 48.4802 162.493 48.4802ZM160.673 43.9801C160.673 45.0294 161.512 45.7559 162.483 45.7559C163.474 45.7559 164.404 45.0395 164.404 43.9902V43.97C164.404 42.9005 163.474 42.2043 162.483 42.2043C161.492 42.2043 160.673 42.8904 160.673 43.9599V43.9801ZM166.949 40.5395C167.212 40.5395 167.414 40.368 167.414 40.1258V39.9946C167.414 39.7424 167.212 39.5809 166.949 39.5809C166.696 39.5809 166.494 39.7424 166.494 39.9946V40.1258C166.494 40.368 166.696 40.5395 166.949 40.5395ZM167.343 46.5026C167.343 46.7245 167.181 46.8961 166.959 46.8961C166.737 46.8961 166.565 46.7245 166.565 46.5026V41.9722C166.565 41.7603 166.737 41.5787 166.949 41.5787C167.171 41.5787 167.343 41.7503 167.343 41.9722V46.5026ZM170.505 46.9364C170.808 46.9364 171.051 46.886 171.274 46.7952C171.405 46.7447 171.496 46.6337 171.496 46.4925C171.496 46.3109 171.344 46.1595 171.162 46.1595C171.143 46.1595 171.115 46.1668 171.077 46.1766C170.997 46.1975 170.873 46.2301 170.687 46.2301C170.161 46.2301 169.807 45.9981 169.807 45.3624V42.3153H171.162C171.354 42.3153 171.516 42.1639 171.516 41.9722C171.516 41.7906 171.354 41.6292 171.162 41.6292H169.807V40.3982C169.807 40.1863 169.625 40.0047 169.413 40.0047C169.191 40.0047 169.029 40.1863 169.029 40.3982V41.6292H168.604C168.422 41.6292 168.26 41.7805 168.26 41.9722C168.26 42.1539 168.422 42.3153 168.604 42.3153H169.029V45.4633C169.029 46.5227 169.666 46.9364 170.505 46.9364ZM175.891 46.0586C175.527 46.5328 174.921 46.9566 174.001 46.9566C173.03 46.9566 172.049 46.4017 172.049 45.3321V45.312C172.049 44.2122 172.959 43.627 174.284 43.627C174.951 43.627 175.426 43.7178 175.891 43.8489V43.6673C175.891 42.729 175.315 42.2447 174.334 42.2447C173.809 42.2447 173.364 42.3657 172.979 42.5373C172.929 42.5574 172.878 42.5675 172.838 42.5675C172.656 42.5675 172.494 42.4162 172.494 42.2346C172.494 42.0731 172.605 41.9521 172.706 41.9117C173.222 41.6897 173.748 41.5585 174.415 41.5585C175.153 41.5585 175.72 41.7503 176.104 42.1337C176.458 42.4868 176.64 42.9913 176.64 43.6572V46.5127C176.64 46.7346 176.478 46.8961 176.266 46.8961C176.043 46.8961 175.891 46.7346 175.891 46.5328V46.0586ZM174.152 46.3411C173.445 46.3411 172.838 45.9577 172.838 45.3019V45.2817C172.838 44.6259 173.384 44.2021 174.365 44.2021C175.002 44.2021 175.517 44.3131 175.902 44.4241V44.9286C175.902 45.7559 175.113 46.3411 174.152 46.3411ZM178.75 46.5026C178.75 46.7245 178.588 46.8961 178.366 46.8961C178.143 46.8961 177.971 46.7245 177.971 46.5026V39.8231C177.971 39.6112 178.143 39.4296 178.356 39.4296C178.578 39.4296 178.75 39.6112 178.75 39.8231V46.5026ZM185.579 46.9566C186.843 46.9566 188.077 45.9476 188.077 44.2424V44.2223C188.077 42.507 186.833 41.5182 185.579 41.5182C184.619 41.5182 184.002 42.053 183.577 42.6785V39.8231C183.577 39.6011 183.405 39.4296 183.183 39.4296C182.971 39.4296 182.799 39.6011 182.799 39.8231V46.5026C182.799 46.7145 182.971 46.8961 183.193 46.8961C183.416 46.8961 183.577 46.7145 183.577 46.5026V45.8467C183.982 46.4319 184.609 46.9566 185.579 46.9566ZM183.547 44.2424C183.547 45.4532 184.467 46.2604 185.438 46.2604C186.449 46.2604 187.278 45.5138 187.278 44.2525V44.2324C187.278 43.0014 186.429 42.2144 185.438 42.2144C184.467 42.2144 183.547 43.0317 183.547 44.2223V44.2424ZM190.672 46.9566C191.593 46.9566 192.199 46.5328 192.563 46.0586V46.5328C192.563 46.7346 192.715 46.8961 192.937 46.8961C193.15 46.8961 193.311 46.7346 193.311 46.5127V43.6572C193.311 42.9913 193.129 42.4868 192.776 42.1337C192.391 41.7503 191.825 41.5585 191.087 41.5585C190.42 41.5585 189.894 41.6897 189.378 41.9117C189.277 41.9521 189.166 42.0731 189.166 42.2346C189.166 42.4162 189.328 42.5675 189.51 42.5675C189.55 42.5675 189.601 42.5574 189.651 42.5373C190.035 42.3657 190.48 42.2447 191.006 42.2447C191.987 42.2447 192.563 42.729 192.563 43.6673V43.8489C192.098 43.7178 191.623 43.627 190.956 43.627C189.631 43.627 188.721 44.2122 188.721 45.312V45.3321C188.721 46.4017 189.702 46.9566 190.672 46.9566ZM189.51 45.3019C189.51 45.9577 190.116 46.3411 190.824 46.3411C191.785 46.3411 192.573 45.7559 192.573 44.9286V44.4241C192.189 44.3131 191.673 44.2021 191.036 44.2021C190.056 44.2021 189.51 44.6259 189.51 45.2817V45.3019ZM198.758 46.8961C198.971 46.8961 199.143 46.7245 199.143 46.5026V43.6068C199.143 42.3657 198.405 41.5182 197.141 41.5182C196.241 41.5182 195.695 41.9722 195.351 42.5373V41.9722C195.351 41.7503 195.179 41.5787 194.957 41.5787C194.744 41.5787 194.572 41.7603 194.572 41.9722V46.5026C194.572 46.7245 194.744 46.8961 194.967 46.8961C195.189 46.8961 195.351 46.7245 195.351 46.5026V43.859C195.351 42.8803 196.018 42.2245 196.918 42.2245C197.838 42.2245 198.364 42.8299 198.364 43.7985V46.5026C198.364 46.7245 198.536 46.8961 198.758 46.8961ZM204.782 46.5328C204.782 46.7447 204.62 46.8961 204.408 46.8961C204.266 46.8961 204.175 46.8456 204.074 46.7145L202.264 44.4342L201.182 45.5037V46.5026C201.182 46.7245 201.02 46.8961 200.798 46.8961C200.576 46.8961 200.404 46.7245 200.404 46.5026V39.8231C200.404 39.6112 200.576 39.4296 200.788 39.4296C201.01 39.4296 201.182 39.6112 201.182 39.8231V44.6057L204.013 41.7301C204.104 41.6292 204.195 41.5787 204.317 41.5787C204.529 41.5787 204.671 41.7503 204.671 41.942C204.671 42.063 204.62 42.1438 204.519 42.2447L202.81 43.9196L204.681 46.2705C204.751 46.3613 204.782 46.4319 204.782 46.5328Z" fill="white"/>
</svg>
