<svg width="36" height="36" viewBox="0 0 36 36" fill="none" xmlns="http://www.w3.org/2000/svg">
<g clip-path="url(#clip0_1066_6023)">
<path fill-rule="evenodd" clip-rule="evenodd" d="M18 0C27.9411 0 36 8.05887 36 18C36 27.9411 27.9411 36 18 36C8.05887 36 0 27.9411 0 18C0 8.05887 8.05887 0 18 0ZM12.3477 9.53971C11.8581 10.1272 11.8937 10.9783 12.4027 11.5229L12.5397 11.6523L20.1555 18L12.5397 24.3476C11.9033 24.878 11.8173 25.8238 12.3477 26.4603C12.8372 27.0477 13.6808 27.1662 14.3083 26.7638L14.4603 26.6523L23.4603 19.1523C24.132 18.5926 24.1767 17.5925 23.5946 16.974L23.4603 16.8476L14.4603 9.34765C13.8239 8.8173 12.878 8.90329 12.3477 9.53971Z" fill="#003D4C"/>
</g>
<defs>
<clipPath id="clip0_1066_6023">
<rect width="36" height="36" fill="white"/>
</clipPath>
</defs>
</svg>
