<svg width="7" height="13" viewBox="0 0 7 13" fill="none" xmlns="http://www.w3.org/2000/svg">
<path d="M0.275 11.8C0.0916663 11.6167 0 11.3833 0 11.1C0 10.8167 0.0916663 10.5833 0.275 10.4L4.175 6.49999L0.275 2.59999C0.0916663 2.41665 0 2.18332 0 1.89999C0 1.61665 0.0916663 1.38332 0.275 1.19999C0.458333 1.01665 0.691666 0.924988 0.974999 0.924988C1.25833 0.924988 1.49167 1.01665 1.675 1.19999L6.275 5.79999C6.375 5.89999 6.446 6.00832 6.488 6.12499C6.52933 6.24165 6.55 6.36665 6.55 6.49999C6.55 6.63332 6.52933 6.75832 6.488 6.87499C6.446 6.99165 6.375 7.09999 6.275 7.19999L1.675 11.8C1.49167 11.9833 1.25833 12.075 0.974999 12.075C0.691666 12.075 0.458333 11.9833 0.275 11.8Z" fill="white"/>
</svg>
