<svg viewBox="0 0 24 20" xmlns="http://www.w3.org/2000/svg">
<path fill-rule="evenodd" clip-rule="evenodd" d="M4.6129 1.2097L4.70711 1.29289L12 8.585L19.2929 1.29289C19.6834 0.902369 20.3166 0.902369 20.7071 1.29289C21.0676 1.65338 21.0953 2.22061 20.7903 2.6129L20.7071 2.70711L13.415 10L20.7071 17.2929C21.0976 17.6834 21.0976 18.3166 20.7071 18.7071C20.3466 19.0676 19.7794 19.0953 19.3871 18.7903L19.2929 18.7071L12 11.415L4.70711 18.7071C4.31658 19.0976 3.68342 19.0976 3.29289 18.7071C2.93241 18.3466 2.90468 17.7794 3.2097 17.3871L3.29289 17.2929L10.585 10L3.29289 2.70711C2.90237 2.31658 2.90237 1.68342 3.29289 1.29289C3.65338 0.932409 4.22061 0.90468 4.6129 1.2097Z" />
</svg>
