<svg width="24" height="24" viewBox="0 0 24 24" fill="none" xmlns="http://www.w3.org/2000/svg">
<path fill-rule="evenodd" clip-rule="evenodd" d="M5.12692 1.87754L9.95577 6.71886C10.3454 7.10953 10.345 7.74199 9.95486 8.13216L5.85005 12.2357L11.899 18.2847L16.0162 14.1793C16.4069 13.7896 17.0394 13.79 17.4295 14.1802L22.2584 19.009C22.6489 19.3995 22.6489 20.0327 22.2584 20.4232C19.1975 23.4841 14.2349 23.4841 11.174 20.4232C11.1221 20.3713 11.0771 20.3152 11.039 20.2559L3.87899 13.0959C3.81974 13.0578 3.76363 13.0128 3.7118 12.961C3.56621 12.8154 3.42754 12.6655 3.2958 12.5117L3.26585 12.48C3.2152 12.4294 3.17111 12.3746 3.1336 12.3169C0.664855 9.23941 0.857366 4.73107 3.7118 1.87663C4.10268 1.48575 4.73655 1.48616 5.12692 1.87754ZM16.7216 16.3008L13.3564 19.656L13.4162 19.6979C15.3983 21.0592 18.0341 21.0592 20.0162 19.6979L20.0754 19.6546L16.7216 16.3008ZM4.47972 4.05877L4.43712 4.11878C3.07583 6.10095 3.07583 8.73669 4.43712 10.7189L4.47972 10.7777L7.83423 7.42318L4.47972 4.05877Z" fill="#003D4C"/>
</svg>
