<svg width="26" height="26" viewBox="0 0 26 26" fill="none" xmlns="http://www.w3.org/2000/svg">
<path d="M13 24C19.0751 24 24 19.0751 24 13C24 6.92487 19.0751 2 13 2C6.92487 2 2 6.92487 2 13C2 19.0751 6.92487 24 13 24Z" fill="#003D4C"/>
<path fill-rule="evenodd" clip-rule="evenodd" d="M15.982 18.0001C16.5 18.0001 16.92 17.5941 16.92 17.0761C16.92 16.5581 16.5 16.1381 15.982 16.1381H12.58V14.2621H14.96C15.45 14.2621 15.856 13.8701 15.856 13.3801C15.856 12.8901 15.45 12.4841 14.96 12.4841H12.58V11.4061C12.58 10.9581 12.72 10.5941 12.944 10.3701C13.154 10.1601 13.406 10.0621 13.742 10.0621C14.204 10.0621 14.54 10.2441 14.904 10.6221C15.044 10.7621 15.296 10.9441 15.674 10.9441C16.262 10.9441 16.738 10.4821 16.738 9.89406C16.738 9.54406 16.598 9.32006 16.402 9.12406C15.786 8.49406 14.96 8.06006 13.714 8.06006C12.636 8.06006 11.81 8.38206 11.236 8.95606C10.69 9.50206 10.396 10.3421 10.396 11.3501V12.4841H10.144C9.65405 12.4841 9.24805 12.8901 9.24805 13.3801C9.24805 13.8701 9.65405 14.2621 10.144 14.2621H10.396V16.2361L9.83605 16.4181C9.45805 16.5441 9.24805 16.8661 9.24805 17.2161C9.24805 17.6501 9.59805 18.0001 10.116 18.0001H15.982Z" fill="white"/>
</svg>
