<svg viewBox="0 0 48 48" fill="none" xmlns="http://www.w3.org/2000/svg">
<path fill-rule="evenodd" clip-rule="evenodd" d="M44.023 8.00011L44.2332 8.01346C44.24 8.01424 44.2468 8.01506 44.2535 8.01592C44.2729 8.01841 44.293 8.02126 44.313 8.02441C44.3677 8.03297 44.4207 8.04358 44.4729 8.05623C44.5109 8.06553 44.5494 8.07606 44.5876 8.08777C44.624 8.09889 44.6598 8.11101 44.6951 8.12411C44.7245 8.13501 44.7528 8.14623 44.7808 8.15812C44.8295 8.17881 44.8775 8.20149 44.9244 8.22598C44.9383 8.23317 44.9524 8.24073 44.9664 8.24847C45.0213 8.27892 45.0745 8.31168 45.1259 8.34678C45.1442 8.35919 45.1623 8.37198 45.1802 8.38511C45.231 8.42235 45.2798 8.46172 45.3266 8.50325C45.3325 8.50851 45.3389 8.51429 45.3453 8.52012C45.4002 8.57077 45.4404 8.61132 45.4789 8.65351L45.3453 8.52012C45.4146 8.58311 45.4785 8.64984 45.5369 8.71974C45.5723 8.76252 45.6059 8.80644 45.6377 8.85175C45.651 8.87012 45.6639 8.88914 45.6764 8.90832C45.8811 9.22283 46 9.59753 46 10V40C46 41.1046 45.1046 42 44 42H4C2.89543 42 2 41.1046 2 40V10C2 9.59753 2.11888 9.22283 2.32344 8.90909C2.33615 8.88914 2.34902 8.87012 2.36226 8.85129C2.39408 8.80645 2.42773 8.76252 2.46311 8.72009C2.48209 8.69706 2.50161 8.67471 2.5217 8.65272C2.55958 8.61132 2.5998 8.57077 2.64169 8.532C2.64629 8.52775 2.65046 8.52393 2.65465 8.52012L2.67341 8.50325C2.72024 8.46172 2.76903 8.42235 2.81962 8.3853L2.65465 8.52012C2.72471 8.45643 2.79805 8.39865 2.87408 8.34673C2.92555 8.31168 2.97871 8.27892 3.03344 8.24865C3.04758 8.24073 3.06166 8.23317 3.0758 8.22579C3.12252 8.20149 3.17051 8.17881 3.2195 8.15802C3.24725 8.14623 3.27551 8.13501 3.30395 8.12446C3.3402 8.11101 3.37599 8.09889 3.41223 8.08776C3.4506 8.07606 3.48906 8.06553 3.52774 8.05617C3.57931 8.04358 3.63231 8.03297 3.68601 8.02451C3.70704 8.02126 3.72709 8.01841 3.74716 8.01587C3.8295 8.00541 3.91412 8 4 8L3.90296 8.0023C3.92764 8.00112 3.95234 8.00039 3.97704 8.00011H44.023ZM42 15.17L25.4799 33.3453C24.743 34.1559 23.5068 34.2138 22.6986 33.519L22.5201 33.3453L6 15.172V38H42V15.17ZM18.217 22.6637L24 29.028L29.8996 22.5365C26.3208 20.1651 21.8945 20.2288 18.217 22.6637ZM39.478 12H8.52L15.502 19.6782C20.7562 15.9082 27.4376 15.8083 32.6132 19.5506L39.478 12Z" fill="currentColor"/>
</svg>
