<svg width="13" height="12" viewBox="0 0 13 12" fill="none" xmlns="http://www.w3.org/2000/svg">
<path fill-rule="evenodd" clip-rule="evenodd" d="M12.7167 4.53466C12.6333 4.2811 12.4043 4.10101 12.1334 4.07703L8.45338 3.74887L6.99821 0.403834C6.89091 0.158687 6.64655 0 6.37505 0C6.10355 0 5.85919 0.158687 5.75189 0.404407L4.29673 3.74887L0.616151 4.07703C0.345721 4.10159 0.117315 4.2811 0.0333644 4.53466C-0.0505857 4.78821 0.0269441 5.06632 0.231518 5.24163L3.01316 7.6375L2.19292 11.186C2.1329 11.4469 2.23601 11.7166 2.45644 11.8731C2.57492 11.9572 2.71354 12 2.85333 12C2.97386 12 3.09341 11.9681 3.20071 11.905L6.37505 10.0418L9.54823 11.905C9.78043 12.0422 10.0731 12.0297 10.2931 11.8731C10.5136 11.7162 10.6166 11.4464 10.5566 11.186L9.73636 7.6375L12.518 5.24211C12.7226 5.06632 12.8007 4.78869 12.7167 4.53466Z" fill="#D6DBDC"/>
</svg>
