<svg width="13" height="12" viewBox="0 0 13 12" fill="none" xmlns="http://www.w3.org/2000/svg">
<path fill-rule="evenodd" clip-rule="evenodd" d="M12.9667 4.53466C12.8833 4.2811 12.6543 4.10101 12.3834 4.07703L8.70338 3.74887L7.24821 0.403834C7.14091 0.158687 6.89655 0 6.62505 0C6.35355 0 6.10919 0.158687 6.00189 0.404407L4.54673 3.74887L0.866151 4.07703C0.595721 4.10159 0.367315 4.2811 0.283364 4.53466C0.199414 4.78821 0.276944 5.06632 0.481518 5.24163L3.26316 7.6375L2.44292 11.186C2.3829 11.4469 2.48601 11.7166 2.70644 11.8731C2.82492 11.9572 2.96354 12 3.10333 12C3.22386 12 3.34341 11.9681 3.45071 11.905L6.62505 10.0418L9.79823 11.905C10.0304 12.0422 10.3231 12.0297 10.5431 11.8731C10.7636 11.7162 10.8666 11.4464 10.8066 11.186L9.98636 7.6375L12.768 5.24211C12.9726 5.06632 13.0507 4.78869 12.9667 4.53466Z" fill="#00D1B6"/>
</svg>
