<svg width="24" height="24" viewBox="0 0 24 24" fill="none" xmlns="http://www.w3.org/2000/svg">
<path fill-rule="evenodd" clip-rule="evenodd" d="M15.5 20.8C15.5 21.4627 15.0523 22 14.5 22H9.5C8.94772 22 8.5 21.4627 8.5 20.8L8.5008 17.1962C5.83613 15.898 4 13.1634 4 10C4 5.58172 7.58172 2 12 2C16.4183 2 20 5.58172 20 10C20 13.163 18.1643 15.8973 15.5002 17.1957L15.5 20.8ZM13.5 18H10.5V20H13.5V18ZM12 4C8.68629 4 6 6.68629 6 10C6 13.3137 8.68629 16 12 16C15.3137 16 18 13.3137 18 10C18 6.68629 15.3137 4 12 4Z" fill="#003D4C"/>
</svg>
