<svg width="48" height="48" viewBox="0 0 48 48" fill="none" xmlns="http://www.w3.org/2000/svg">
<path fill-rule="evenodd" clip-rule="evenodd" d="M36.8333 2C41.897 2 46 6.10483 46 11.1667V36.8333C46 41.8952 41.897 46 36.8333 46H11.1667C6.10483 46 2 41.8952 2 36.8333V11.1667C2 6.10483 6.10483 2 11.1667 2H36.8333ZM15.9672 16.5014H10.459V36H15.9672V16.5014ZM25.1475 16.5014H19.6393V36H25.1475V26.0663C25.1475 20.5482 32.4918 20.0962 32.4918 26.0663V36H38V24.019C38 14.7075 27.7107 15.0461 25.1475 19.63V16.5014ZM13.2131 8C11.4395 8 10 9.40035 10 11.1269C10 12.8534 11.4395 14.2537 13.2131 14.2537C14.9886 14.2537 16.4262 12.8534 16.4262 11.1269C16.4262 9.40035 14.9868 8 13.2131 8Z" fill="#00D1B6"/>
</svg>
