<svg width="24" height="24" viewBox="0 0 24 24" fill="none" xmlns="http://www.w3.org/2000/svg">
<path fill-rule="evenodd" clip-rule="evenodd" d="M9.271 3C9.82328 3 10.271 3.44772 10.271 4C10.271 4.51284 9.88496 4.93551 9.38762 4.99327L9.271 5H5.757C5.37376 5 5.05704 5.28479 5.00691 5.65428L5 5.757V18.056C5 18.2568 5.07976 18.4493 5.22172 18.5913C5.33529 18.7049 5.48124 18.7786 5.63786 18.8036L5.757 18.813H9.271C9.82328 18.813 10.271 19.2607 10.271 19.813C10.271 20.3258 9.88496 20.7485 9.38762 20.8063L9.271 20.813H5.757C5.0258 20.813 4.32454 20.5225 3.80751 20.0055C3.33747 19.5355 3.05469 18.9132 3.00715 18.2546L3 18.056V5.757C3 4.29075 4.14461 3.09183 5.58905 3.00503L5.757 3H9.271ZM16.0338 6.72363L16.128 6.80681L20.521 11.1988C20.6543 11.332 20.7421 11.4935 20.7844 11.6639C20.7853 11.6721 20.7871 11.6798 20.7888 11.6875C20.7966 11.7173 20.802 11.7478 20.8059 11.7785C20.8057 11.7855 20.8066 11.7928 20.8074 11.8002C20.8158 11.8698 20.8158 11.9397 20.8087 12.0089L20.813 11.907C20.813 11.9524 20.81 11.9971 20.8041 12.0408C20.8014 12.0672 20.7967 12.0936 20.791 12.1198C20.7875 12.1327 20.7844 12.1458 20.7811 12.1587C20.7756 12.1822 20.7687 12.2053 20.7609 12.2282C20.756 12.2408 20.7513 12.2539 20.7463 12.2669C20.7378 12.2903 20.7281 12.3129 20.7175 12.3353C20.7101 12.3496 20.7028 12.3641 20.6952 12.3783C20.6864 12.3956 20.6766 12.4128 20.6661 12.4298C20.6524 12.4514 20.6382 12.4726 20.6233 12.4932C20.6172 12.502 20.6108 12.5105 20.6043 12.5189C20.577 12.5533 20.553 12.5806 20.5276 12.6065L20.5211 12.6131L16.1281 17.0061C15.7376 17.3966 15.1044 17.3966 14.7139 17.0061C14.3534 16.6456 14.3257 16.0784 14.6307 15.6861L14.7139 15.5919L17.396 12.907H9.271C8.71872 12.907 8.271 12.4593 8.271 11.907C8.271 11.3942 8.65704 10.9715 9.15438 10.9137L9.271 10.907H17.399L14.714 8.22119C14.3534 7.86074 14.3257 7.29352 14.6306 6.90119L14.7138 6.80697C15.0743 6.44645 15.6415 6.41865 16.0338 6.72363Z" fill="#003D4C"/>
</svg>
