<svg width="24" height="24" viewBox="0 0 24 24" fill="none" xmlns="http://www.w3.org/2000/svg">
<path fill-rule="evenodd" clip-rule="evenodd" d="M22.0115 4.00006L22.1166 4.00673C22.12 4.00712 22.1234 4.00753 22.1268 4.00796C22.1365 4.00921 22.1465 4.01063 22.1565 4.01221C22.1838 4.01649 22.2103 4.02179 22.2364 4.02812C22.2555 4.03276 22.2747 4.03803 22.2938 4.04389C22.312 4.04944 22.3299 4.05551 22.3476 4.06205C22.3622 4.0675 22.3764 4.07311 22.3904 4.07906C22.4147 4.0894 22.4387 4.10074 22.4622 4.11299C22.4692 4.11659 22.4762 4.12037 22.4832 4.12424C22.5106 4.13946 22.5372 4.15584 22.5629 4.17339C22.5721 4.17959 22.5811 4.18599 22.5901 4.19256C22.6155 4.21117 22.6399 4.23086 22.6633 4.25163C22.6662 4.25425 22.6695 4.25714 22.6727 4.26006C22.7001 4.28539 22.7202 4.30566 22.7394 4.32676L22.6727 4.26006C22.7073 4.29155 22.7392 4.32492 22.7684 4.35987C22.7861 4.38126 22.803 4.40322 22.8189 4.42587C22.8255 4.43506 22.8319 4.44457 22.8382 4.45416C22.9406 4.61142 23 4.79877 23 5V20C23 20.5523 22.5523 21 22 21H2C1.44772 21 1 20.5523 1 20V5C1 4.79877 1.05944 4.61142 1.16172 4.45455C1.16808 4.44457 1.17451 4.43506 1.18113 4.42565C1.19704 4.40322 1.21387 4.38126 1.23156 4.36004C1.24104 4.34853 1.2508 4.33736 1.26085 4.32636C1.27979 4.30566 1.2999 4.28539 1.32084 4.266C1.32315 4.26388 1.32523 4.26197 1.32733 4.26006L1.33671 4.25163C1.36012 4.23086 1.38451 4.21117 1.40981 4.19265L1.32733 4.26006C1.36236 4.22822 1.39903 4.19932 1.43704 4.17337C1.46277 4.15584 1.48935 4.13946 1.51672 4.12432C1.52379 4.12037 1.53083 4.11659 1.5379 4.1129C1.56126 4.10074 1.58525 4.0894 1.60975 4.07901C1.62362 4.07311 1.63775 4.0675 1.65198 4.06223C1.6701 4.05551 1.688 4.04944 1.70611 4.04388C1.7253 4.03803 1.74453 4.03276 1.76387 4.02808C1.78966 4.02179 1.81615 4.01649 1.84301 4.01225C1.85352 4.01063 1.86354 4.00921 1.87358 4.00794C1.91475 4.00271 1.95706 4 2 4L1.95148 4.00115C1.96382 4.00056 1.97617 4.00019 1.98852 4.00006H22.0115ZM21 7.585L12.7399 16.6727C12.3715 17.0779 11.7534 17.1069 11.3493 16.7595L11.2601 16.6727L3 7.586V19H21V7.585ZM9.10851 11.3319L12 14.514L14.9498 11.2682C13.1604 10.0825 10.9472 10.1144 9.10851 11.3319ZM19.739 6H4.26L7.75098 9.83912C10.3781 7.95412 13.7188 7.90416 16.3066 9.77528L19.739 6Z" fill="#003D4C"/>
</svg>
