<svg width="36" height="36" viewBox="0 0 36 36" fill="none" xmlns="http://www.w3.org/2000/svg">
<path fill-rule="evenodd" clip-rule="evenodd" d="M31.3333 7.5C32.2538 7.5 33 8.22323 33 9.11538V26.8846C33 27.7768 32.2538 28.5 31.3333 28.5H4.66667C3.74619 28.5 3 27.7768 3 26.8846V9.11538C3 8.22323 3.74619 7.5 4.66667 7.5H31.3333ZM30 10.5H6V25.5H30V10.5ZM14.25 18C15.9069 18 17.25 19.3431 17.25 21C17.25 22.6569 15.9069 24 14.25 24C13.5404 24 12.8884 23.7536 12.3747 23.3418C11.8629 23.7532 11.2103 24 10.5 24C8.84315 24 7.5 22.6569 7.5 21C7.5 19.3431 8.84315 18 10.5 18C11.2103 18 11.8629 18.2468 12.3768 18.6594C12.8884 18.2464 13.5404 18 14.25 18Z" fill="#001F26"/>
</svg>
