<svg width="25" height="24" viewBox="0 0 25 24" fill="none" xmlns="http://www.w3.org/2000/svg">
<path fill-rule="evenodd" clip-rule="evenodd" d="M14.5 5C15.6046 5 16.5 5.89543 16.5 7V7.621L19.6992 6.22371C20.7114 5.78147 21.8905 6.24349 22.3327 7.25567C22.443 7.50821 22.5 7.78082 22.5 8.05642V15.942C22.5 17.0465 21.6046 17.942 20.5 17.942C20.2241 17.942 19.9511 17.8849 19.6984 17.7743L16.5 16.375V17C16.5 18.1046 15.6046 19 14.5 19H4.5C3.39543 19 2.5 18.1046 2.5 17V7C2.5 5.89543 3.39543 5 4.5 5H14.5ZM14.5 7H4.5V17H14.5V7ZM20.5 8.05642L16.5 9.80411V14.192L20.5 15.942V8.05642Z" fill="#003D4C"/>
</svg>
