<svg width="24" height="24" viewBox="0 0 24 24" fill="none" xmlns="http://www.w3.org/2000/svg">
<path fill-rule="evenodd" clip-rule="evenodd" d="M12 22.5C9.96045 22.5 8.27743 20.9735 8.03104 19.0008L4 19C3.44772 19 3 18.5523 3 18C3 17.4872 3.38604 17.0645 3.88338 17.0067L4 17L5 16.9999V9.57692C5 5.79147 8.00478 2.70782 11.7593 2.58098L12 2.57692C15.866 2.57692 19 5.71093 19 9.57692V16.9999L20 17C20.5523 17 21 17.4477 21 18C21 18.5128 20.614 18.9355 20.1166 18.9933L20 19L15.969 19.0008C15.7226 20.9735 14.0395 22.5 12 22.5ZM13.9368 19.0009L10.0633 19.001C10.2856 19.8631 11.0684 20.5 12 20.5C12.9316 20.5 13.7144 19.8631 13.9368 19.0009ZM12 4.57692C9.23858 4.57692 7 6.8155 7 9.57692V16.999H17V9.57692C17 6.88816 14.8777 4.6951 12.2169 4.58154L12 4.57692Z" fill="#003D4C"/>
</svg>
