<svg width="469" height="536" viewBox="0 0 469 536" fill="none" xmlns="http://www.w3.org/2000/svg">
<rect x="67" y="536" width="67" height="67" transform="rotate(-180 67 536)" fill="#73F2EB"/>
<rect x="134" y="536" width="67" height="67" transform="rotate(-180 134 536)" fill="#73F2EB"/>
<rect x="67" y="469" width="67" height="67" transform="rotate(-180 67 469)" fill="#73F2EB"/>
<rect x="134" y="469" width="67" height="67" transform="rotate(-180 134 469)" fill="#73F2EB"/>
<rect opacity="0.8" x="67" y="402" width="67" height="67" transform="rotate(-180 67 402)" fill="#73F2EB"/>
<rect x="134" y="402" width="67" height="67" transform="rotate(-180 134 402)" fill="#73F2EB"/>
<rect opacity="0.6" x="67" y="335" width="67" height="67" transform="rotate(-180 67 335)" fill="#73F2EB"/>
<rect x="134" y="335" width="67" height="67" transform="rotate(-180 134 335)" fill="#73F2EB"/>
<rect opacity="0.4" x="67" y="268" width="67" height="67" transform="rotate(-180 67 268)" fill="#73F2EB"/>
<rect opacity="0.8" x="134" y="268" width="67" height="67" transform="rotate(-180 134 268)" fill="#73F2EB"/>
<rect opacity="0.2" x="67" y="201" width="67" height="67" transform="rotate(-180 67 201)" fill="#73F2EB"/>
<rect opacity="0.6" x="134" y="201" width="67" height="67" transform="rotate(-180 134 201)" fill="#73F2EB"/>
<rect opacity="0.4" x="134" y="134" width="67" height="67" transform="rotate(-180 134 134)" fill="#73F2EB"/>
<rect x="200.999" y="536" width="67" height="67" transform="rotate(-180 200.999 536)" fill="#73F2EB"/>
<rect opacity="0.8" x="267.999" y="536" width="67" height="67" transform="rotate(-180 267.999 536)" fill="#73F2EB"/>
<rect opacity="0.7" x="334.999" y="536" width="67" height="67" transform="rotate(-180 334.999 536)" fill="#73F2EB"/>
<rect opacity="0.6" x="401.999" y="536" width="67" height="67" transform="rotate(-180 401.999 536)" fill="#73F2EB"/>
<rect opacity="0.4" x="468.999" y="536" width="67" height="67" transform="rotate(-180 468.999 536)" fill="#73F2EB"/>
<rect x="200.999" y="469" width="67" height="67" transform="rotate(-180 200.999 469)" fill="#73F2EB"/>
<rect opacity="0.9" x="267.999" y="469" width="67" height="67" transform="rotate(-180 267.999 469)" fill="#73F2EB"/>
<rect opacity="0.7" x="401.999" y="469" width="67" height="67" transform="rotate(-180 401.999 469)" fill="#73F2EB"/>
<rect opacity="0.8" x="334.999" y="469" width="67" height="67" transform="rotate(-180 334.999 469)" fill="#73F2EB"/>
<rect x="200.999" y="402" width="67" height="67" transform="rotate(-180 200.999 402)" fill="#73F2EB"/>
<rect opacity="0.8" x="267.999" y="402" width="67" height="67" transform="rotate(-180 267.999 402)" fill="#73F2EB"/>
<rect opacity="0.7" x="334.999" y="402" width="67" height="67" transform="rotate(-180 334.999 402)" fill="#73F2EB"/>
<rect opacity="0.7" x="200.999" y="335" width="67" height="67" transform="rotate(-180 200.999 335)" fill="#73F2EB"/>
<rect opacity="0.4" x="267.999" y="335" width="67" height="67" transform="rotate(-180 267.999 335)" fill="#73F2EB"/>
<rect opacity="0.6" x="200.999" y="268" width="67" height="67" transform="rotate(-180 200.999 268)" fill="#73F2EB"/>
<rect opacity="0.5" x="200.999" y="201" width="67" height="67" transform="rotate(-180 200.999 201)" fill="#73F2EB"/>
<rect opacity="0.2" x="200.999" y="134" width="67" height="67" transform="rotate(-180 200.999 134)" fill="#73F2EB"/>
<rect opacity="0.2" x="133" y="67" width="67" height="67" transform="rotate(-180 133 67)" fill="#73F2EB"/>
</svg>
