<svg viewBox="0 0 26 27" fill="none" xmlns="http://www.w3.org/2000/svg">
    <path fill-rule="evenodd" clip-rule="evenodd" d="M23.2487 12.1476C23.0724 12.2999 22.8527 12.3875 22.6237 12.3968C22.3217 12.3741 22.0442 12.216 21.8633 11.9634C21.6445 11.6926 21.4154 11.4326 21.1654 11.1726C19.2388 9.17517 16.6271 8.05715 13.9067 8.06528C11.1864 8.07341 8.5809 9.20703 6.66538 11.2159C6.41538 11.4759 6.18621 11.7359 5.96746 12.0068C5.79085 12.2283 5.53673 12.3677 5.26118 12.3941C4.98563 12.4205 4.7113 12.3318 4.49871 12.1476C4.27305 11.9767 4.12281 11.7187 4.08168 11.4315C4.04056 11.1443 4.11199 10.852 4.27996 10.6201C4.54038 10.3059 4.81121 9.98095 5.10288 9.67761C7.41785 7.2696 10.5579 5.91675 13.832 5.91675C17.1062 5.91675 20.2462 7.2696 22.5612 9.67761C22.8529 9.98095 23.1237 10.3059 23.3841 10.6201C23.5613 10.8412 23.6466 11.1265 23.6211 11.4131C23.5957 11.6997 23.4617 11.9639 23.2487 12.1476ZM20.207 14.9209C20.4159 14.9182 20.6191 14.8503 20.7904 14.7259C21.265 14.3879 21.3862 13.7137 21.0612 13.2201C20.8079 12.8334 20.522 12.4709 20.207 12.1368C16.7065 8.50598 11.0409 8.50598 7.54038 12.1368C7.2254 12.4709 6.93956 12.8334 6.68621 13.2201C6.43782 13.7098 6.5844 14.3154 7.0261 14.6245C7.46779 14.9335 8.06246 14.8464 8.40496 14.4226C8.58948 14.1595 8.79508 13.913 9.01955 13.6859C11.7027 10.9037 16.0447 10.9037 18.7279 13.6859C18.9524 13.913 19.1579 14.1595 19.3425 14.4226C19.5317 14.7294 19.8566 14.9167 20.207 14.9209ZM17.7695 17.4559C17.39 17.4592 17.0388 17.2475 16.8529 16.9034C16.7139 16.6463 16.5383 16.4126 16.332 16.2101C14.9738 14.7996 12.7737 14.7996 11.4154 16.2101C11.2083 16.4159 11.0327 16.6533 10.8945 16.9143C10.6069 17.4378 9.96564 17.6197 9.46226 17.3205C8.95887 17.0214 8.78398 16.3545 9.07163 15.8309C9.30716 15.4018 9.59805 15.0081 9.93621 14.6609C12.1119 12.4019 15.6356 12.4019 17.8112 14.6609C18.1478 15.0136 18.4384 15.4106 18.6758 15.8418C18.8099 16.0932 18.8424 16.3897 18.7662 16.666C18.6901 16.9423 18.5114 17.1759 18.2695 17.3151C18.1181 17.4079 17.9453 17.4565 17.7695 17.4559ZM11.9478 19.5912C11.626 18.78 11.8066 17.8471 12.405 17.2284C13.2175 16.3884 14.5299 16.3884 15.3425 17.2284C15.9409 17.8471 16.1214 18.78 15.7996 19.5912C15.4779 20.4024 14.7175 20.9317 13.8737 20.9317C13.03 20.9317 12.2695 20.4024 11.9478 19.5912Z" fill="currentColor"/>
</svg>
